# xmcd
#
# Track frame offsets:
#	150
#	15875
#	30360
#	44907
#	59292
#	72215
#	87070
#	100882
#	115957
#	129162
#	144665
#	160217
#	172550
#	187350
#	201875
#	214977
#	227815
#	240185
#	251847
#	264155
#	277067
#	293430
#
# Disc length: 4100 seconds
#
# Revision: 1
# Processed by: cddbd v1.5.1PL0 Copyright (c) Steve Scherf et al.
# Submitted via: audiograbber 1.83.01
#
DISCID=32100216
DTITLE=Memphis Jug Band - Associates and Alternate Takes 1927-1930
DYEAR=1900
DGENRE=
TTITLE0=Sun Brimmers Blues (take 1/3)
TTITLE1=Stingy Woman Blues (take 1)
TTITLE2=Newport News Blues (take 2)
TTITLE3=Snitchin' Gambler Blues (take 3)
TTITLE4=Lindberg Hop (Overseas Stomp) (take 2)
TTITLE5=Turpentine Blues (Will Weldon)
TTITLE6=Hitch Me to Your Buggy (Will Weldon)
TTITLE7=Vol Stevens Blues (Vol Stevens)
TTITLE8=Baby Got the Rickets (Vol Stevens)
TTITLE9=Better Leave That Stuff Alone (Will Shade)
TTITLE10=She Stabbed Me With an Ice-Pick (Will Shade)
TTITLE11=The Old Folks Started It (take 2) (Minnie Wallace
TTITLE12=Won't You Be Kind to Me? (Hattie Hart)
TTITLE13=You Wouldn't, Would You. Papa? (Hattie Hart)
TTITLE14=Cash Money Blues (Kaiser Clifton)
TTITLE15=Fort Worth and Denver Blues (Kaiser Clifton)
TTITLE16=She'll Be Back Someday (Kaiser Clifton)
TTITLE17=Teach Me Right from Wrong (Kaiser Clifton)
TTITLE18=Bull Frog Blues (Jenny Pope)
TTITLE19=Tennessee Workhouse Blues (Jenny Pope)
TTITLE20=Mr. Postman Blues (Jenny Pope)
TTITLE21=Rent Man Blues (Jenny Pope)
EXTD=
EXTT0=
EXTT1=
EXTT2=
EXTT3=
EXTT4=
EXTT5=
EXTT6=
EXTT7=
EXTT8=
EXTT9=
EXTT10=
EXTT11=
EXTT12=
EXTT13=
EXTT14=
EXTT15=
EXTT16=
EXTT17=
EXTT18=
EXTT19=
EXTT20=
EXTT21=
PLAYORDER=
